<?xml version="1.0" standalone="no"?>
<!DOCTYPE svg PUBLIC "-//W3C//DTD SVG 20010904//EN"
 "http://www.w3.org/TR/2001/REC-SVG-20010904/DTD/svg10.dtd">
<svg version="1.0" xmlns="http://www.w3.org/2000/svg"
 width="300.000000pt" height="300.000000pt" viewBox="0 0 300.000000 300.000000"
 preserveAspectRatio="xMidYMid meet">
<metadata>
Created by potrace 1.10, written by Peter Selinger 2001-2011
</metadata>
<g transform="translate(0.000000,300.000000) scale(0.100000,-0.100000)"
fill="#000000" stroke="none">
<path d="M1481 2721 c-18 -42 -80 -98 -130 -116 -92 -32 -208 -10 -272 51
l-26 25 -12 -55 c-21 -94 -87 -165 -178 -192 -62 -19 -103 -18 -162 5 l-50 19
10 -25 c5 -13 9 -48 9 -76 0 -134 -114 -246 -249 -247 l-54 0 22 -24 c12 -13
29 -46 37 -72 39 -126 -41 -282 -162 -316 l-37 -10 29 -19 c91 -57 130 -209
78 -311 -9 -18 -35 -52 -57 -75 -31 -32 -37 -43 -24 -43 27 0 96 -38 125 -68
43 -47 72 -121 72 -188 0 -60 -19 -126 -40 -139 -22 -14 -8 -21 44 -21 165 -3
299 -191 241 -337 -7 -17 -5 -17 30 2 153 82 353 -34 355 -205 l1 -29 20 27
c28 38 77 66 137 79 97 20 205 -30 242 -115 l18 -39 20 39 c39 77 109 117 202
117 68 0 123 -23 166 -69 l34 -35 0 36 c0 72 49 146 128 192 61 36 157 39 219
6 l42 -22 -11 30 c-14 41 -4 128 20 176 25 48 91 109 141 130 20 9 60 16 88
16 l53 0 -23 36 c-31 51 -32 187 0 247 29 54 92 110 142 125 l40 12 -37 36
c-93 91 -107 226 -35 333 14 21 39 46 55 56 l29 19 -38 11 c-140 42 -215 237
-140 365 l28 47 -48 0 c-90 1 -175 55 -218 140 -32 64 -39 118 -22 168 8 23
14 42 12 42 -1 0 -17 -8 -36 -17 -23 -12 -57 -18 -104 -18 -58 0 -78 5 -117
27 -81 49 -138 134 -138 209 l0 23 -27 -27 c-115 -109 -339 -80 -400 53 -10
22 -21 40 -24 40 -4 0 -12 -13 -18 -29z m63 -95 c26 -22 46 -43 46 -48 0 -10
-164 -11 -174 -1 -6 6 74 96 80 90 2 -1 23 -20 48 -41z m-412 -45 c24 -11 52
-23 63 -26 17 -6 14 -9 -20 -22 -22 -8 -46 -15 -52 -16 -7 0 -13 -4 -13 -9 0
-4 -11 -8 -25 -8 -14 0 -25 -4 -25 -10 0 -5 -9 -10 -19 -10 -11 0 -23 5 -26
10 -3 6 -2 10 3 10 5 0 19 23 32 50 13 28 27 50 31 50 5 0 28 -9 51 -19z m809
-23 c12 -24 28 -51 37 -60 14 -17 13 -18 -12 -18 -14 0 -34 4 -44 9 -27 14
-65 29 -94 38 -41 12 -35 24 23 44 28 10 54 21 57 24 9 9 11 6 33 -37z m-297
-23 c179 -27 307 -75 452 -170 212 -138 372 -359 440 -610 24 -89 27 -118 28
-260 1 -172 -12 -254 -60 -382 -205 -543 -787 -826 -1334 -647 -295 97 -514
290 -646 568 -139 294 -135 623 11 921 127 261 362 460 642 545 162 49 304 60
467 35z m-801 -162 c-3 -7 -8 -13 -12 -13 -4 0 -32 -22 -62 -50 -50 -46 -79
-61 -79 -42 0 5 3 12 7 16 4 4 8 23 10 43 3 58 6 60 76 60 49 -1 64 -4 60 -14z
m1447 -38 c3 -28 12 -61 19 -73 22 -41 5 -34 -61 25 -35 32 -78 68 -94 80
l-29 22 80 -3 80 -2 5 -49z m202 -248 l56 -25 -13 -62 c-7 -33 -15 -63 -18
-66 -3 -3 -15 9 -27 25 -12 17 -19 31 -16 31 6 0 -11 31 -47 87 -32 50 -33 57
-9 44 9 -5 43 -20 74 -34z m-1912 24 c0 -6 -5 -13 -10 -16 -6 -4 -8 -11 -5
-16 4 -5 2 -9 -4 -9 -6 0 -13 -11 -17 -25 -3 -14 -10 -25 -15 -25 -5 0 -9 -7
-9 -15 0 -9 -11 -27 -24 -41 l-23 -26 -6 44 c-3 23 -9 53 -12 64 -5 18 -1 23
24 32 17 6 31 9 31 6 0 -3 12 4 28 15 30 22 42 26 42 12z m2082 -470 c-12 -17
-22 -33 -22 -37 0 -3 -9 -17 -20 -31 -11 -14 -21 -35 -22 -47 -1 -11 -5 22 -9
74 -4 52 -10 114 -14 137 l-7 41 58 -53 58 -54 -22 -30z m-2242 63 c-5 -27
-12 -70 -15 -96 -6 -45 -7 -47 -24 -30 -30 29 -64 93 -55 102 31 29 97 80 101
77 2 -2 -1 -26 -7 -53z m2196 -334 c8 -7 14 -16 14 -21 0 -5 11 -27 24 -48
l24 -38 -59 -52 c-66 -58 -68 -56 -44 44 8 33 15 87 16 120 1 33 4 48 6 33 2
-14 11 -32 19 -38z m-2202 -57 c3 -32 9 -73 12 -90 8 -43 -6 -42 -61 4 l-45
37 27 45 c25 43 40 60 54 61 3 0 9 -26 13 -57z m2115 -445 c1 -5 -6 -8 -14 -8
-24 0 -109 -32 -118 -44 -25 -33 11 47 39 90 19 28 34 55 34 59 0 5 8 16 18
25 16 16 18 13 29 -49 6 -36 12 -69 12 -73z m-2006 92 c9 -11 17 -22 17 -25 0
-3 14 -27 31 -55 34 -56 33 -70 -3 -47 -12 9 -40 19 -61 23 -33 6 -38 10 -33
28 3 11 9 38 12 59 7 42 13 45 37 17z m314 -358 c29 -20 53 -40 53 -44 0 -5
-31 -8 -70 -8 -76 0 -71 -4 -84 70 -3 14 -8 36 -12 50 l-8 25 35 -28 c19 -15
58 -44 86 -65z m1434 54 c-6 -14 -12 -44 -13 -66 l-3 -41 -72 3 c-40 1 -73 5
-73 9 0 4 12 15 27 25 15 9 32 21 38 26 5 4 30 24 54 43 24 20 45 34 48 32 2
-2 -1 -16 -6 -31z m-352 -244 l-32 -59 -59 25 c-32 14 -58 29 -58 33 0 4 25
13 55 20 30 7 55 16 55 21 0 4 11 8 24 8 14 0 28 5 31 11 4 6 9 8 12 5 3 -2
-10 -31 -28 -64z m-799 40 c0 -5 25 -14 55 -21 30 -7 57 -16 60 -21 3 -5 -12
-14 -32 -21 -21 -6 -48 -18 -60 -26 -23 -15 -43 -10 -43 10 0 7 -9 23 -20 37
-28 36 -25 50 10 50 17 0 30 -4 30 -8z m460 -73 c0 -10 -69 -78 -80 -79 -3 0
-27 20 -53 44 l-48 44 91 1 c58 1 90 -3 90 -10z"/>
<path d="M1373 2473 c-9 -3 -11 -19 -7 -51 9 -77 14 -92 30 -92 13 0 15 7 11
30 -6 28 -4 30 23 30 27 0 30 -3 30 -30 0 -20 5 -30 15 -30 12 0 15 15 15 75
0 68 -2 75 -20 75 -16 0 -19 -5 -13 -30 5 -28 4 -30 -26 -30 -26 0 -31 4 -31
24 0 27 -8 36 -27 29z"/>
<path d="M1530 2438 c0 -25 -3 -60 -6 -78 -6 -28 -4 -32 12 -28 12 2 20 13 22
31 5 37 18 34 32 -8 8 -24 18 -35 31 -35 19 0 19 1 4 31 -15 28 -15 32 -1 48
34 38 12 69 -54 78 l-40 6 0 -45z m78 -10 c3 -13 -3 -18 -22 -18 -20 0 -26 5
-26 21 0 15 5 20 22 17 13 -2 24 -11 26 -20z"/>
<path d="M1242 2444 c-16 -11 -22 -25 -22 -52 0 -68 46 -101 101 -72 23 13 27
63 4 54 -8 -4 -15 -12 -15 -20 0 -17 -32 -18 -48 -2 -17 17 -15 67 4 75 8 3
20 1 27 -6 16 -16 37 -14 37 4 0 15 -29 35 -52 35 -8 0 -24 -7 -36 -16z"/>
<path d="M1672 2397 c-15 -81 -15 -87 2 -87 9 0 18 22 26 65 15 78 15 79 -3
83 -9 2 -17 -16 -25 -61z"/>
<path d="M1757 2422 c-24 -26 -21 -37 13 -65 17 -14 30 -30 30 -36 0 -23 -21
-20 -45 5 -22 24 -25 25 -31 9 -9 -22 28 -55 60 -55 49 0 63 58 21 86 -14 9
-25 23 -25 30 0 21 28 17 40 -6 14 -25 30 -26 30 -1 0 22 -35 51 -61 51 -9 0
-23 -8 -32 -18z"/>
<path d="M1073 2393 c-8 -3 -11 -15 -8 -29 3 -13 8 -36 11 -51 5 -28 5 -28
-34 10 -27 26 -44 36 -56 31 -9 -4 -15 -12 -13 -18 43 -105 61 -135 73 -125
11 9 10 18 -6 50 -28 53 -25 57 12 15 51 -57 66 -49 49 27 -5 20 -7 37 -5 37
2 0 13 -18 24 -40 20 -39 30 -47 43 -34 8 9 -55 134 -68 133 -5 0 -16 -3 -22
-6z"/>
<path d="M1880 2387 c0 -9 9 -18 20 -22 19 -6 18 -8 -10 -59 -27 -48 -30 -66
-9 -66 4 0 20 22 36 49 19 35 33 49 47 48 37 -4 25 18 -21 38 -26 11 -51 22
-55 23 -4 2 -8 -3 -8 -11z"/>
<path d="M1981 2271 c-37 -54 -41 -71 -20 -71 12 0 89 117 82 124 -13 13 -24
4 -62 -53z"/>
<path d="M873 2269 c-7 -7 -2 -31 16 -79 25 -68 47 -87 45 -39 -1 29 25 52 43
37 7 -6 18 -6 28 0 13 7 5 16 -47 50 -72 47 -70 46 -85 31z m60 -43 c15 -11
15 -15 3 -25 -14 -12 -18 -9 -29 22 -8 20 1 21 26 3z"/>
<path d="M1340 2256 c-188 -44 -348 -141 -460 -279 -118 -145 -170 -296 -170
-489 0 -322 161 -583 447 -727 113 -56 202 -76 348 -75 114 1 141 4 215 28
279 90 480 303 550 580 24 97 27 271 5 364 -66 281 -288 509 -570 587 -80 22
-293 28 -365 11z m340 -32 c83 -19 229 -90 302 -148 121 -96 223 -254 264
-406 13 -47 18 -102 17 -195 0 -118 -3 -139 -31 -225 -88 -268 -296 -459 -569
-525 -114 -28 -291 -18 -406 22 -115 40 -185 83 -275 168 -115 108 -187 227
-228 376 -25 89 -25 299 0 388 50 182 187 362 350 460 162 97 377 128 576 85z"/>
<path d="M1216 1706 c-153 -261 -291 -497 -307 -525 l-29 -51 621 0 621 0 -28
48 c-15 26 -147 250 -292 497 -146 248 -273 462 -281 477 -9 16 -18 28 -21 28
-3 0 -130 -213 -284 -474z m361 301 c39 -67 169 -286 287 -487 l216 -365 -290
-3 c-160 -1 -420 -1 -579 0 l-289 3 42 70 c377 645 532 905 536 905 3 0 37
-55 77 -123z"/>
<path d="M1448 1727 c19 -20 22 -35 22 -100 l0 -76 -47 51 c-27 28 -47 57 -45
64 2 10 -10 14 -45 14 l-48 0 93 -92 93 -92 -78 -78 c-43 -43 -83 -78 -90 -78
-7 0 -13 -4 -13 -10 0 -5 16 -10 35 -10 22 0 35 5 35 13 0 7 25 37 55 67 l55
54 0 -51 c0 -42 -4 -55 -22 -67 -21 -15 -20 -16 36 -16 57 0 58 1 43 18 -11
12 -17 36 -17 67 l0 49 50 -49 c33 -33 49 -56 46 -67 -4 -16 3 -18 52 -17 49
0 54 2 37 12 -11 7 -55 46 -98 87 l-78 76 95 92 c81 78 91 92 71 92 -18 0 -46
-23 -100 -77 l-74 -78 -1 43 c0 40 1 42 30 42 63 0 105 84 62 123 -14 13 -38
17 -97 17 l-78 0 21 -23z m106 -17 c31 -11 35 -45 7 -60 -37 -19 -51 -12 -51
23 0 29 6 47 16 47 1 0 14 -4 28 -10z"/>
<path d="M1384 1235 c-13 -33 24 -63 41 -34 4 6 0 9 -11 7 -12 -2 -19 3 -19
12 0 8 8 14 17 14 10 -1 15 2 12 7 -8 14 -34 10 -40 -6z"/>
<path d="M1440 1218 c0 -26 3 -30 11 -18 8 11 12 12 16 3 9 -24 20 -13 15 17
-3 21 -10 30 -23 30 -15 0 -19 -7 -19 -32z"/>
<path d="M1501 1223 c-1 -27 3 -33 19 -33 16 0 20 6 19 33 -2 30 -2 30 -6 5
-2 -16 -8 -28 -13 -28 -5 0 -11 12 -13 28 -4 25 -4 25 -6 -5z"/>
<path d="M1569 1219 c20 -36 26 -36 26 0 0 22 -5 29 -21 29 -21 0 -21 -1 -5
-29z"/>
<path d="M1878 1833 c-28 -4 -28 -5 -28 -82 l0 -79 63 -3 c34 -3 88 -3 120 -1
l57 4 0 78 0 79 -42 4 c-54 6 -135 5 -170 0z m92 -78 l0 -65 -50 0 -50 0 0 65
0 65 50 0 50 0 0 -65z m108 -2 l3 -63 -51 0 -50 0 0 66 0 65 48 -3 47 -3 3
-62z"/>
<path d="M944 1822 c3 -5 -8 -43 -23 -85 -28 -73 -28 -77 -9 -77 10 0 16 5 13
10 -16 25 5 46 45 46 40 0 60 -21 45 -46 -4 -6 5 -10 21 -10 25 0 26 1 12 18
-9 9 -25 44 -37 76 -18 47 -19 61 -9 67 8 6 -1 9 -25 9 -21 0 -36 -4 -33 -8z
m40 -36 c3 -13 9 -31 12 -40 5 -13 -1 -16 -26 -16 -25 0 -31 3 -26 16 3 9 9
27 12 40 3 13 10 24 14 24 4 0 11 -11 14 -24z"/>
<path d="M1466 1059 c-15 -33 -16 -45 -7 -66 10 -22 9 -24 -9 -18 -14 5 -20 2
-20 -10 0 -13 11 -15 67 -13 43 2 68 7 71 16 3 9 -4 11 -25 6 -23 -5 -26 -4
-15 7 14 15 17 73 3 65 -5 -3 -14 8 -21 24 -7 17 -15 30 -19 30 -3 0 -14 -19
-25 -41z m44 -64 c0 -16 -6 -25 -16 -25 -11 0 -14 5 -10 16 3 9 6 20 6 25 0 5
5 9 10 9 6 0 10 -11 10 -25z"/>
<path d="M1455 920 c10 -11 31 -20 46 -20 18 0 32 7 39 20 10 19 8 20 -46 20
-56 0 -57 0 -39 -20z"/>
<path d="M1474 868 c3 -13 6 -44 6 -70 0 -34 4 -48 14 -48 14 0 26 49 26 108
0 28 -3 32 -26 32 -22 0 -25 -3 -20 -22z"/>
<path d="M2051 2229 c-68 -49 -64 -45 -56 -58 4 -8 12 -8 26 0 26 14 45 -1 53
-43 8 -41 18 -29 45 54 33 101 18 111 -68 47z m48 -23 c-13 -28 -24 -33 -34
-16 -6 9 36 53 43 45 1 -1 -3 -14 -9 -29z"/>
<path d="M769 2180 c-9 -5 -22 -23 -29 -40 -11 -28 -11 -34 7 -58 42 -56 89
-59 127 -9 17 23 17 29 6 57 -12 30 -54 60 -82 60 -7 0 -20 -5 -29 -10z m66
-45 c29 -28 31 -38 10 -55 -20 -16 -62 -5 -76 21 -8 16 -7 25 7 40 22 25 30
24 59 -6z"/>
<path d="M2151 2139 c-36 -32 -52 -52 -45 -59 6 -6 23 1 47 21 20 17 37 28 37
26 0 -2 -7 -24 -15 -47 -14 -41 -13 -80 4 -80 3 0 31 24 60 54 35 36 49 56 41
61 -7 4 -26 -6 -46 -26 -39 -38 -39 -38 -18 25 14 41 14 50 3 61 -12 11 -23 5
-68 -36z"/>
<path d="M647 2017 c-3 -8 18 -28 54 -50 32 -20 61 -37 63 -37 8 0 44 69 39
74 -12 11 -22 6 -28 -14 -8 -27 -18 -25 -67 10 -46 34 -54 36 -61 17z"/>
<path d="M2290 1968 c-71 -14 -74 -16 -60 -33 6 -7 18 -11 25 -9 18 7 40 -33
26 -49 -5 -7 -6 -19 -2 -26 6 -9 21 1 57 39 27 29 49 56 48 61 -1 5 -2 14 -2
19 -2 12 -30 11 -92 -2z m42 -40 c-19 -20 -24 -21 -32 -8 -7 11 -4 17 8 22 37
15 47 9 24 -14z"/>
<path d="M608 1958 c-4 -10 110 -88 127 -88 2 0 5 6 8 14 4 10 -14 26 -58 50
-71 40 -72 41 -77 24z"/>
<path d="M576 1884 c-9 -8 -16 -28 -16 -43 0 -53 48 -69 76 -26 20 30 44 33
44 5 0 -13 -7 -20 -20 -20 -23 0 -27 -25 -5 -34 21 -7 55 28 55 57 0 51 -51
63 -86 20 -19 -23 -25 -26 -36 -15 -11 11 -9 17 10 32 12 10 22 23 22 29 0 16
-26 13 -44 -5z"/>
<path d="M2342 1850 c-32 -13 -48 -53 -34 -85 7 -14 19 -28 27 -31 22 -9 45 3
39 20 -3 8 -12 12 -20 9 -25 -10 -29 29 -5 49 28 22 45 23 66 2 14 -15 14 -18
1 -33 -20 -22 -6 -46 16 -28 30 23 31 55 4 82 -26 26 -55 30 -94 15z"/>
<path d="M541 1707 c-37 -18 -48 -63 -24 -96 33 -43 114 -41 135 4 15 34 2 72
-32 90 -35 18 -48 18 -79 2z m80 -43 c30 -36 -41 -73 -75 -39 -12 12 -13 21
-6 36 13 23 62 26 81 3z"/>
<path d="M2340 1692 c0 -11 9 -22 20 -25 23 -6 27 -42 5 -54 -8 -5 -11 -13 -6
-21 12 -19 131 52 131 78 0 15 -10 20 -57 25 -32 4 -66 9 -75 11 -13 4 -18 0
-18 -14z m110 -31 c0 -9 -24 -21 -41 -21 -5 0 -9 7 -9 15 0 9 9 15 25 15 14 0
25 -4 25 -9z"/>
<path d="M2423 1563 l-63 -4 0 -39 c0 -51 27 -80 73 -80 37 0 65 24 68 56 4
36 -1 74 -8 72 -5 -1 -36 -3 -70 -5z m57 -51 c0 -24 -19 -42 -45 -42 -26 0
-45 18 -45 42 0 15 8 18 45 18 37 0 45 -3 45 -18z"/>
<path d="M492 1542 c-6 -18 -5 -19 76 -25 66 -5 72 -4 72 13 0 16 -10 19 -71
22 -52 2 -73 -1 -77 -10z"/>
<path d="M490 1468 c0 -19 4 -20 54 -14 42 5 56 3 67 -10 11 -14 10 -18 -6
-30 -10 -8 -28 -14 -39 -14 -37 0 -66 -12 -66 -27 0 -11 10 -13 48 -7 93 13
116 37 90 91 -12 26 -18 28 -81 29 -61 2 -67 0 -67 -18z"/>
<path d="M2360 1412 c0 -11 -3 -34 -6 -51 -5 -24 -3 -31 10 -31 11 0 16 9 16
31 0 24 4 30 18 27 11 -2 17 -13 17 -28 0 -33 19 -37 23 -5 5 39 34 33 30 -7
-5 -48 19 -46 27 2 4 23 4 44 1 47 -3 3 -27 9 -53 14 -26 5 -56 12 -65 15 -13
4 -18 0 -18 -14z"/>
<path d="M594 1343 c-16 -3 -20 -10 -16 -29 5 -28 22 -43 22 -20 0 9 7 16 15
16 9 0 15 -9 15 -25 0 -26 -30 -41 -67 -33 -15 3 -17 12 -15 48 3 44 3 44 -18
25 -27 -25 -25 -61 6 -92 20 -20 31 -24 57 -19 58 12 78 49 61 114 -6 21 -16
24 -60 15z"/>
<path d="M2342 1293 c2 -12 20 -21 58 -29 l55 -11 -64 -4 c-36 -2 -66 -9 -68
-15 -2 -6 19 -23 47 -38 61 -33 60 -42 0 -21 -43 15 -70 14 -70 -3 0 -7 103
-43 133 -46 5 -1 13 9 18 21 7 19 2 26 -33 47 l-42 25 50 3 c44 3 49 5 49 27
0 21 -8 26 -65 42 -36 10 -66 18 -68 19 -2 0 -2 -8 0 -17z"/>
<path d="M608 1177 c-31 -28 -54 -58 -51 -64 5 -15 148 -19 157 -5 7 12 -11
35 -22 28 -16 -10 -37 33 -23 47 12 12 15 47 4 47 -5 0 -34 -24 -65 -53z m42
-36 c0 -5 -14 -11 -32 -13 l-32 -5 23 18 c22 18 41 18 41 0z"/>
<path d="M2267 1096 c-3 -8 5 -18 19 -25 13 -6 37 -31 52 -55 24 -38 30 -42
39 -28 9 14 6 23 -15 45 l-26 27 41 0 c27 0 43 5 47 15 4 12 -6 15 -59 15 -35
0 -67 5 -70 10 -9 14 -22 12 -28 -4z"/>
<path d="M685 1069 c-4 -5 -18 -14 -31 -19 -14 -6 -27 -17 -31 -25 -5 -15 24
-95 35 -95 8 0 122 73 122 78 0 3 -11 20 -26 39 -25 33 -57 43 -69 22z m49
-36 c8 -19 -8 -38 -23 -29 -16 10 -13 46 3 46 8 0 17 -8 20 -17z m-47 -29 c8
-21 -13 -42 -28 -27 -13 13 -5 43 11 43 6 0 13 -7 17 -16z"/>
<path d="M846 811 c-25 -28 -5 -63 32 -59 30 3 42 39 22 64 -17 19 -34 18 -54
-5z"/>
<path d="M2089 806 c-9 -20 -9 -29 1 -41 28 -34 87 5 64 43 -18 28 -52 27 -65
-2z"/>
<path d="M1224 646 c-16 -12 -17 -17 -5 -28 11 -10 14 -10 18 0 6 15 29 16 38
2 9 -15 -12 -38 -57 -61 -21 -11 -38 -23 -38 -28 0 -8 74 -31 100 -31 21 0 4
24 -20 30 -23 5 -23 7 13 27 30 18 37 28 37 52 0 46 -46 66 -86 37z"/>
<path d="M1706 631 c-18 -19 -24 -31 -16 -36 6 -4 17 -2 24 4 11 9 16 3 23
-28 9 -35 8 -40 -8 -44 -11 -3 -19 -13 -19 -22 0 -9 3 -14 8 -12 4 3 26 10 50
16 24 7 42 18 42 26 0 9 -6 12 -15 9 -11 -4 -19 9 -31 55 -10 34 -20 61 -24
61 -3 0 -19 -13 -34 -29z"/>
<path d="M1366 608 c-22 -31 -20 -91 2 -111 19 -18 59 -22 79 -9 35 22 37 114
2 132 -30 17 -67 11 -83 -12z m74 -53 c0 -18 -7 -39 -16 -46 -36 -29 -55 49
-22 89 17 19 38 -5 38 -43z"/>
<path d="M1536 608 c-38 -54 -9 -128 50 -128 31 0 37 4 50 36 17 41 5 98 -22
108 -31 12 -63 5 -78 -16z m74 -53 c0 -42 -22 -62 -44 -40 -21 21 -21 59 0 80
22 22 44 2 44 -40z"/>
</g>
</svg>
